<svg height="512pt" viewBox="0 -54 512.001 512" width="512pt" xmlns="http://www.w3.org/2000/svg">
<path fill="#fff" d="m512 193.027344c0-26-21.144531-47.152344-47.132812-47.152344h-1.773438c-7.589844-81.699219-76.519531-145.875-160.164062-145.875h-93.855469c-83.648438 0-152.578125 64.175781-160.167969 145.875h-1.769531c-25.992188 0-47.136719 21.152344-47.136719 47.152344 0 14.8125 6.867188 28.042968 17.578125 36.695312-10.875 11.363282-17.578125 26.753906-17.578125 43.691406 0 29.691407 20.570312 54.660157 48.199219 61.414063v21.128906c0 25.996094 21.148437 47.144531 47.144531 47.144531h321.3125c25.996094 0 47.144531-21.148437 47.144531-47.144531v-21.128906c27.628907-6.753906 48.199219-31.722656 48.199219-61.414063 0-16.9375-6.703125-32.328124-17.578125-43.691406 10.710937-8.652344 17.578125-21.882812 17.578125-36.695312zm-302.925781-163.027344h93.851562c67.09375 0 122.558594 50.746094 130.019531 115.875h-353.890624c7.460937-65.128906 62.925781-115.875 130.019531-115.875zm-161.941407 145.875h417.734376c9.445312 0 17.132812 7.695312 17.132812 17.152344 0 9.460937-7.6875 17.15625-17.132812 17.15625h-53.679688c-2.660156 0-5.339844.730468-7.628906 2.082031l-65.515625 38.683594-65.515625-38.683594c-2.289063-1.351563-4.96875-2.082031-7.625-2.082031h-217.769532c-9.445312 0-17.132812-7.695313-17.132812-17.15625 0-9.457032 7.6875-17.152344 17.132812-17.152344zm386.667969 180.082031c0 9.453125-7.691406 17.144531-17.144531 17.144531h-321.3125c-9.453125 0-17.144531-7.691406-17.144531-17.144531v-19.316406h355.601562zm15-49.316406h-385.601562c-18.304688 0-33.199219-14.90625-33.199219-33.230469 0-18.320312 14.894531-33.230468 33.199219-33.230468h197.605469l69.613281 41.105468c2.351562 1.390625 4.988281 2.082032 7.625 2.082032s5.273437-.695313 7.628906-2.082032l69.613281-41.105468h33.515625c18.304688 0 33.199219 14.910156 33.199219 33.234374 0 18.320313-14.894531 33.226563-33.199219 33.226563zm0 0"/><path fill="#fff" d="m162.078125 62.511719c-7.84375 0-15.363281 6.898437-15 15 .363281 8.128906 6.59375 15 15 15 7.847656 0 15.363281-6.898438 15-15-.363281-8.125-6.589844-15-15-15zm0 0"/><path fill="#fff"  d="m224.691406 62.511719c-7.84375 0-15.363281 6.898437-15 15 .367188 8.128906 6.59375 15 15 15 7.847656 0 15.363282-6.898438 15-15-.363281-8.125-6.589844-15-15-15zm0 0"/><path fill="#fff"  d="m287.308594 62.511719c-7.847656 0-15.363282 6.898437-15 15 .363281 8.128906 6.589844 15 15 15 7.84375 0 15.363281-6.898438 15-15-.367188-8.125-6.59375-15-15-15zm0 0"/><path fill="#fff"  d="m193.386719 93.363281c-7.847657 0-15.363281 6.898438-15 15 .363281 8.128907 6.589843 15 15 15 7.84375 0 15.363281-6.898437 15-15-.363281-8.125-6.589844-15-15-15zm0 0"/><path fill="#fff"  d="m256 93.363281c-7.847656 0-15.363281 6.898438-15 15 .363281 8.128907 6.589844 15 15 15 7.847656 0 15.363281-6.898437 15-15-.363281-8.125-6.589844-15-15-15zm0 0"/><path fill="#fff"  d="m318.613281 93.363281c-7.84375 0-15.363281 6.898438-15 15 .363281 8.128907 6.589844 15 15 15 7.847657 0 15.363281-6.898437 15-15-.363281-8.125-6.589843-15-15-15zm0 0"/><path fill="#fff"  d="m349.921875 62.511719c-7.847656 0-15.363281 6.898437-15 15 .363281 8.128906 6.589844 15 15 15 7.84375 0 15.363281-6.898438 15-15-.363281-8.125-6.59375-15-15-15zm0 0"/></svg>